<svg xmlns="http://www.w3.org/2000/svg" viewBox="0 0 616.87 761.37"><defs><style>.cls-1{fill:#fff;}</style></defs><title>Varlık 1</title><g id="katman_2" data-name="katman 2"><g id="katman_1-2" data-name="katman 1"><path class="cls-1" d="M225.41,738a296.67,296.67,0,0,0,79,11.73v11.32q-7.16-.09-14.22-.51h0C130.82,751.27,3.06,620.61.05,458.35c-2.87-154.6,108.53-284.74,256.51-309.79l0,1.64A11.82,11.82,0,0,1,247.17,162C110.32,190.65,8.73,313.25,11.41,458.19c2.47,133.3,92.37,244.46,214,279.81Z"/><path class="cls-1" d="M323.92,760.69h0c-2.46.12-4.92.22-7.39.28q-4.08.1-8.13.11V749.76l3.22,0a293.54,293.54,0,0,0,80.12-12h0C516.64,700.82,608,583.3,605.46,447.18c-2.69-145-108.78-263.71-246.61-287.29a11.77,11.77,0,0,1-9.81-11.4l0-1.65c148.12,19.47,263.88,144.32,267.76,298C621,611.84,489.94,752.4,323.92,760.69Z"/><path class="cls-1" d="M214.86,298.91h0a3.41,3.41,0,0,1,1.12-4.79,182.39,182.39,0,0,1,61.52-22.3l0,1a7.05,7.05,0,0,1-5.62,7A176.69,176.69,0,0,0,219.43,300,3.39,3.39,0,0,1,214.86,298.91Z"/><path class="cls-1" d="M141.59,385.63h0a3.41,3.41,0,0,1-2.41-4.64,184.5,184.5,0,0,1,50.47-68.25,3.41,3.41,0,0,1,5,.76h0A3.4,3.4,0,0,1,194,318a177.62,177.62,0,0,0-48.56,65.67A3.41,3.41,0,0,1,141.59,385.63Z"/><path class="cls-1" d="M332.65,271.78l0-1a183.79,183.79,0,0,1,120.25,68.47,3.42,3.42,0,0,1-.89,5h0a3.4,3.4,0,0,1-4.47-.79,177.11,177.11,0,0,0-109-64.87A7,7,0,0,1,332.65,271.78Z"/><path class="cls-1" d="M131.29,456.5a178.06,178.06,0,0,0,6.6,44.89,3.38,3.38,0,0,1-1.86,4h0a3.38,3.38,0,0,1-4.63-2.14,185.26,185.26,0,0,1-2.23-91.52,3.38,3.38,0,0,1,4-2.52h0a3.37,3.37,0,0,1,2.54,4.07A178.6,178.6,0,0,0,131.29,456.5Z"/><path class="cls-1" d="M186.82,585.58h0a3.38,3.38,0,0,1-5.23.79,184,184,0,0,1-38.75-53,3.38,3.38,0,0,1,1.67-4.54h0a3.37,3.37,0,0,1,4.41,1.63,177,177,0,0,0,37.26,51A3.36,3.36,0,0,1,186.82,585.58Z"/><path class="cls-1" d="M487.24,496.22a185.05,185.05,0,0,1-56.85,94.41,3.41,3.41,0,0,1-5.12-.74l-.07-.11a3.39,3.39,0,0,1,.63-4.36,178.16,178.16,0,0,0,54.8-90.77,3.39,3.39,0,0,1,3.72-2.59h0A3.41,3.41,0,0,1,487.24,496.22Z"/><path class="cls-1" d="M488.22,467.49h0a3.38,3.38,0,0,1-2.94-3.58q.41-6.93.29-14a176.39,176.39,0,0,0-21-80.48,3.39,3.39,0,0,1,1.16-4.48h0a3.39,3.39,0,0,1,4.79,1.24,182.5,182.5,0,0,1,21.75,82.29q.19,8-.28,15.86A3.4,3.4,0,0,1,488.22,467.49Z"/><path class="cls-1" d="M221.74,370.86h0a2.25,2.25,0,0,1,0-3.18,121.52,121.52,0,0,1,63.94-34.08l0,.64a4.65,4.65,0,0,1-3.62,4.73,117.1,117.1,0,0,0-57.12,31.87A2.24,2.24,0,0,1,221.74,370.86Z"/><path class="cls-1" d="M322.22,332.89l0-.65a121.27,121.27,0,0,1,50.58,17.58,2.26,2.26,0,0,1,.61,3.26h0a2.24,2.24,0,0,1-3,.57,116.85,116.85,0,0,0-44.18-16.33A4.65,4.65,0,0,1,322.22,332.89Z"/><path class="cls-1" d="M388.32,364.64h0a2.26,2.26,0,0,1,3.35-.32,121.72,121.72,0,0,1,32.59,50.88A2.27,2.27,0,0,1,422.8,418h0a2.24,2.24,0,0,1-2.81-1.45,117.19,117.19,0,0,0-31.38-49A2.23,2.23,0,0,1,388.32,364.64Z"/><path class="cls-1" d="M189.08,450.09h0a2.27,2.27,0,0,1-2.5-2.33,121.32,121.32,0,0,1,20-61.5,2.26,2.26,0,0,1,3.47-.33v0a2.23,2.23,0,0,1,.28,2.82A116.74,116.74,0,0,0,191.07,448,2.24,2.24,0,0,1,189.08,450.09Z"/><path class="cls-1" d="M210.09,521.62h0a2.24,2.24,0,0,1-3.18-.56,120.65,120.65,0,0,1-19.11-49.53,2.25,2.25,0,0,1,2-2.55h0a2.23,2.23,0,0,1,2.44,1.91,116.36,116.36,0,0,0,18.39,47.68A2.22,2.22,0,0,1,210.09,521.62Z"/><path class="cls-1" d="M421.39,492.56h0a2.27,2.27,0,0,1-1.31-2.82,115.93,115.93,0,0,0,5.75-40.66c-.14-3.38-.4-6.71-.81-10a2.25,2.25,0,0,1,1.53-2.42,2.22,2.22,0,0,1,2.93,1.85c.4,3.14.67,6.33.81,9.54a121,121,0,0,1-5.92,43.11A2.27,2.27,0,0,1,421.39,492.56Z"/><path class="cls-1" d="M113.82,311.65h0a4.55,4.55,0,0,1-1.72-6.84,245.81,245.81,0,0,1,155-94.35l0,1.32a9.41,9.41,0,0,1-7.52,9.38A236.68,236.68,0,0,0,119.4,310.25,4.55,4.55,0,0,1,113.82,311.65Z"/><path class="cls-1" d="M340.81,210.42V209.1a244.14,244.14,0,0,1,89.95,30.45,4.53,4.53,0,0,1,1.9,5.69h0a4.56,4.56,0,0,1-6.5,2.17,234.93,234.93,0,0,0-77.5-27.9A9.42,9.42,0,0,1,340.81,210.42Z"/><path class="cls-1" d="M456.76,264.13l0-.05a4.53,4.53,0,0,1,7.07-1.73,245.56,245.56,0,0,1,80.88,122.3,4.53,4.53,0,0,1-3.58,5.67h0a4.51,4.51,0,0,1-5.13-3.23A236.84,236.84,0,0,0,458.1,269.38,4.53,4.53,0,0,1,456.76,264.13Z"/><path class="cls-1" d="M67.63,464.85h0a4.55,4.55,0,0,1-5-4.39c0-1-.06-2-.07-3A244.47,244.47,0,0,1,90.88,338.21a4.52,4.52,0,0,1,5.94-1.94h0a4.53,4.53,0,0,1,2,6.25A235.56,235.56,0,0,0,71.62,457.34c0,1,0,1.92.07,2.88A4.52,4.52,0,0,1,67.63,464.85Z"/><path class="cls-1" d="M155.06,638h0a4.53,4.53,0,0,1-7,1.36A245.47,245.47,0,0,1,66.92,499.49a4.52,4.52,0,0,1,4-5.31h0a4.54,4.54,0,0,1,4.91,3.69A236.47,236.47,0,0,0,154,632.48,4.52,4.52,0,0,1,155.06,638Z"/><path class="cls-1" d="M516.18,584.05a247.72,247.72,0,0,1-52.95,59.61,4.6,4.6,0,0,1-7.25-2v0a4.58,4.58,0,0,1,1.43-5.1,240.52,240.52,0,0,0,51-57.34,4.58,4.58,0,0,1,5.77-1.74h0A4.57,4.57,0,0,1,516.18,584.05Z"/><path class="cls-1" d="M528.52,551.56l-.06,0a4.54,4.54,0,0,1-2.26-5.95,233.79,233.79,0,0,0,19.06-97,237.3,237.3,0,0,0-1.69-24.3,4.54,4.54,0,0,1,3.69-5.05h0a4.54,4.54,0,0,1,5.31,3.89q1.39,11.63,1.7,23.57a243.72,243.72,0,0,1-19.7,102.59A4.54,4.54,0,0,1,528.52,551.56Z"/><path class="cls-1" d="M397.58,536c27.36-55.27,2.25-74.12-5.86-72.31s-7.22,49.54-37.85,49.54-29.73-36.93-29.73-36.93l-5.41-328s.68-17.35,18.69-22.08c0,0-10.13-65.35-10.13-75.27s5-22.52,14.42-26.13c0,0,.9-12.61-4-18.92-4.7-6-24.32-12.34-31.37,8.37-.4,1.17-.76,2.44-1.08,3.8,0,.1,0,.2-.07.31h0c-.89,3.79-2.2,8.85-3.79,14.71-.35,1.33-.72,2.71-1.11,4.12C299,41.77,297.58,46.77,296.1,52L295,56.07c-1.44,5-2.93,10.21-4.42,15.35-.39,1.36-.79,2.72-1.18,4.08-1.62,5.58-3.23,11.07-4.76,16.28q-.61,2.07-1.2,4.08c-1.66,5.63-3.2,10.83-4.53,15.3-.43,1.43-.83,2.79-1.22,4.07-2.16,7.28-3.53,11.82-3.53,11.82s11.73,8.56,13.09,21.63-2.73,312.26-2.73,312.26-9.24,13.53-20.71,13.53c-24.35,0-35.15-41.24-35.15-67.62s-39.19,11.51-27,61.51,49.33,67.48,6.09,133.84c-33.3,51.07-24.22,105.69,17.74,135.8h0c16.62,12,38.41,20,64.76,22.54h0q6.9.66,14.22.79V690.51c-15.15-18.73-31.78-42.55-31.54-65.68.27-26.06,17.67-52.22,35.12-71.53,17.07,19.67,33.89,46.2,33.63,72.27-.25,23.29-17.56,46.34-33.27,64.78v71c5.19,0,10.38-.24,15.52-.68h0c25.14-2.18,49.21-9.6,67.78-23h0c17.72-12.75,30.42-30.91,34.26-55.1C436.79,614.35,365.14,601.52,397.58,536Z"/><path class="cls-1" d="M302.25,14.36c-.78,3.61-3.74,6.05-6.63,5.41s-4.61-4-3.81-7.67,3.77-6.06,6.64-5.44S303,10.72,302.25,14.36Z"/><polygon class="cls-1" points="309.55 19.69 297.29 15.86 298.55 11.8 310.8 15.61 309.55 19.69"/><path class="cls-1" d="M298.26,33.46c-.8,3.62-3.76,6-6.65,5.44s-4.58-4.08-3.79-7.71,3.76-6,6.62-5.39S299,29.88,298.26,33.46Z"/><polygon class="cls-1" points="305.53 38.82 293.27 34.97 294.54 30.91 306.81 34.74 305.53 38.82"/><path class="cls-1" d="M292.66,52.32c-.79,3.6-3.77,6-6.65,5.4s-4.57-4.07-3.79-7.68,3.78-6,6.64-5.42S293.44,48.68,292.66,52.32Z"/><polygon class="cls-1" points="299.95 57.65 287.69 53.79 288.96 49.75 301.2 53.58 299.95 57.65"/><path class="cls-1" d="M287.38,71.84c-.78,3.61-3.76,6-6.64,5.41s-4.6-4.08-3.78-7.68,3.74-6,6.62-5.42S288.17,68.22,287.38,71.84Z"/><polygon class="cls-1" points="294.68 77.17 282.41 73.33 283.67 69.28 295.93 73.12 294.68 77.17"/><path class="cls-1" d="M281.71,92.29c-.77,3.63-3.75,6-6.62,5.41s-4.59-4.06-3.81-7.69,3.77-6,6.65-5.41S282.5,88.68,281.71,92.29Z"/><polygon class="cls-1" points="289 97.63 276.74 93.77 278.02 89.73 290.27 93.56 289 97.63"/><path class="cls-1" d="M276.37,111.77c-.79,3.63-3.77,6-6.66,5.42s-4.59-4.06-3.79-7.67,3.76-6,6.66-5.43S277.15,108.15,276.37,111.77Z"/><polygon class="cls-1" points="283.66 117.11 271.39 113.29 272.67 109.22 284.92 113.06 283.66 117.11"/><circle class="cls-1" cx="104" cy="324.37" r="6.89"/><circle class="cls-1" cx="68.59" cy="479.79" r="6.89"/><circle class="cls-1" cx="170.89" cy="645.05" r="6.89"/><circle class="cls-1" cx="442.39" cy="650.95" r="6.89"/><circle class="cls-1" cx="523.05" cy="564.39" r="6.89"/><circle class="cls-1" cx="544.69" cy="405.03" r="6.89"/><circle class="cls-1" cx="460.1" cy="353.88" r="4.92"/><circle class="cls-1" cx="487.64" cy="479.79" r="4.92"/><circle class="cls-1" cx="414.85" cy="597.83" r="4.92"/><circle class="cls-1" cx="198.44" cy="593.9" r="4.92"/><circle class="cls-1" cx="139.41" cy="517.17" r="4.92"/><circle class="cls-1" cx="137.45" cy="397.16" r="4.92"/><circle class="cls-1" cx="204.34" cy="304.69" r="4.92"/><circle class="cls-1" cx="216.14" cy="377.49" r="2.95"/><circle class="cls-1" cx="188.6" cy="460.12" r="2.95"/><circle class="cls-1" cx="424.68" cy="426.67" r="2.95"/><circle class="cls-1" cx="416.81" cy="499.46" r="2.95"/><circle class="cls-1" cx="381.4" cy="359.78" r="2.95"/><circle class="cls-1" cx="216.14" cy="527.01" r="2.95"/><circle class="cls-1" cx="446.33" cy="253.54" r="6.89"/></g></g></svg>